<mxfile host="Electron" agent="Mozilla/5.0 (Macintosh; Intel Mac OS X 10_15_7) AppleWebKit/537.36 (KHTML, like Gecko) draw.io/24.7.5 Chrome/126.0.6478.183 Electron/31.3.0 Safari/537.36" version="24.7.5">
  <diagram name="PÃ¡gina-1" id="34QPVmS0YIGO8wsuWb4v">
    <mxGraphModel dx="1549" dy="485" grid="1" gridSize="10" guides="1" tooltips="1" connect="1" arrows="1" fold="1" page="1" pageScale="1" pageWidth="827" pageHeight="1169" math="0" shadow="0">
      <root>
        <mxCell id="0" />
        <mxCell id="1" parent="0" />
        <mxCell id="TB0xdDts6aMuKizarzQX-6" style="edgeStyle=orthogonalEdgeStyle;rounded=0;orthogonalLoop=1;jettySize=auto;html=1;exitX=1;exitY=0.5;exitDx=0;exitDy=0;entryX=0;entryY=0.5;entryDx=0;entryDy=0;endArrow=none;endFill=0;" edge="1" parent="1" source="TB0xdDts6aMuKizarzQX-1" target="TB0xdDts6aMuKizarzQX-4">
          <mxGeometry relative="1" as="geometry" />
        </mxCell>
        <mxCell id="TB0xdDts6aMuKizarzQX-90" style="edgeStyle=orthogonalEdgeStyle;rounded=0;orthogonalLoop=1;jettySize=auto;html=1;exitX=1;exitY=0.75;exitDx=0;exitDy=0;entryX=0;entryY=0.5;entryDx=0;entryDy=0;endArrow=none;endFill=0;" edge="1" parent="1" source="TB0xdDts6aMuKizarzQX-1" target="TB0xdDts6aMuKizarzQX-89">
          <mxGeometry relative="1" as="geometry" />
        </mxCell>
        <mxCell id="TB0xdDts6aMuKizarzQX-1" value="ALUMNO" style="whiteSpace=wrap;html=1;align=center;" vertex="1" parent="1">
          <mxGeometry x="20" y="195" width="100" height="40" as="geometry" />
        </mxCell>
        <mxCell id="TB0xdDts6aMuKizarzQX-8" style="edgeStyle=orthogonalEdgeStyle;rounded=0;orthogonalLoop=1;jettySize=auto;html=1;exitX=1;exitY=0.5;exitDx=0;exitDy=0;entryX=0;entryY=0.5;entryDx=0;entryDy=0;endArrow=none;endFill=0;" edge="1" parent="1" source="TB0xdDts6aMuKizarzQX-2" target="TB0xdDts6aMuKizarzQX-5">
          <mxGeometry relative="1" as="geometry" />
        </mxCell>
        <mxCell id="TB0xdDts6aMuKizarzQX-40" style="edgeStyle=orthogonalEdgeStyle;rounded=0;orthogonalLoop=1;jettySize=auto;html=1;exitX=0.5;exitY=1;exitDx=0;exitDy=0;entryX=0.5;entryY=0;entryDx=0;entryDy=0;endArrow=none;endFill=0;" edge="1" parent="1" source="TB0xdDts6aMuKizarzQX-2" target="TB0xdDts6aMuKizarzQX-39">
          <mxGeometry relative="1" as="geometry" />
        </mxCell>
        <mxCell id="TB0xdDts6aMuKizarzQX-2" value="CURSO" style="whiteSpace=wrap;html=1;align=center;" vertex="1" parent="1">
          <mxGeometry x="320" y="195" width="100" height="40" as="geometry" />
        </mxCell>
        <mxCell id="TB0xdDts6aMuKizarzQX-3" value="INSTRUCTOR" style="whiteSpace=wrap;html=1;align=center;" vertex="1" parent="1">
          <mxGeometry x="640" y="195" width="100" height="40" as="geometry" />
        </mxCell>
        <mxCell id="TB0xdDts6aMuKizarzQX-7" style="edgeStyle=orthogonalEdgeStyle;rounded=0;orthogonalLoop=1;jettySize=auto;html=1;exitX=1;exitY=0.5;exitDx=0;exitDy=0;entryX=0;entryY=0.5;entryDx=0;entryDy=0;endArrow=none;endFill=0;" edge="1" parent="1" source="TB0xdDts6aMuKizarzQX-4" target="TB0xdDts6aMuKizarzQX-2">
          <mxGeometry relative="1" as="geometry" />
        </mxCell>
        <mxCell id="TB0xdDts6aMuKizarzQX-4" value="Cursa" style="shape=rhombus;perimeter=rhombusPerimeter;whiteSpace=wrap;html=1;align=center;" vertex="1" parent="1">
          <mxGeometry x="190" y="183" width="60" height="30" as="geometry" />
        </mxCell>
        <mxCell id="TB0xdDts6aMuKizarzQX-9" style="edgeStyle=orthogonalEdgeStyle;rounded=0;orthogonalLoop=1;jettySize=auto;html=1;exitX=1;exitY=0.5;exitDx=0;exitDy=0;entryX=0;entryY=0.5;entryDx=0;entryDy=0;endArrow=none;endFill=0;" edge="1" parent="1" source="TB0xdDts6aMuKizarzQX-5" target="TB0xdDts6aMuKizarzQX-3">
          <mxGeometry relative="1" as="geometry" />
        </mxCell>
        <mxCell id="TB0xdDts6aMuKizarzQX-5" value="Dictado por" style="shape=rhombus;perimeter=rhombusPerimeter;whiteSpace=wrap;html=1;align=center;" vertex="1" parent="1">
          <mxGeometry x="500" y="200" width="60" height="30" as="geometry" />
        </mxCell>
        <mxCell id="TB0xdDts6aMuKizarzQX-10" value="N" style="text;html=1;align=center;verticalAlign=middle;resizable=0;points=[];autosize=1;strokeColor=none;fillColor=none;" vertex="1" parent="1">
          <mxGeometry x="295" y="188" width="30" height="30" as="geometry" />
        </mxCell>
        <mxCell id="TB0xdDts6aMuKizarzQX-11" value="N" style="text;html=1;align=center;verticalAlign=middle;resizable=0;points=[];autosize=1;strokeColor=none;fillColor=none;" vertex="1" parent="1">
          <mxGeometry x="120" y="188" width="30" height="30" as="geometry" />
        </mxCell>
        <mxCell id="TB0xdDts6aMuKizarzQX-12" value="N" style="text;html=1;align=center;verticalAlign=middle;resizable=0;points=[];autosize=1;strokeColor=none;fillColor=none;" vertex="1" parent="1">
          <mxGeometry x="610" y="188" width="30" height="30" as="geometry" />
        </mxCell>
        <mxCell id="TB0xdDts6aMuKizarzQX-13" value="N" style="text;html=1;align=center;verticalAlign=middle;resizable=0;points=[];autosize=1;strokeColor=none;fillColor=none;" vertex="1" parent="1">
          <mxGeometry x="420" y="188" width="30" height="30" as="geometry" />
        </mxCell>
        <mxCell id="TB0xdDts6aMuKizarzQX-17" style="edgeStyle=orthogonalEdgeStyle;rounded=0;orthogonalLoop=1;jettySize=auto;html=1;exitX=0.5;exitY=1;exitDx=0;exitDy=0;entryX=0;entryY=0.5;entryDx=0;entryDy=0;endArrow=none;endFill=0;" edge="1" parent="1" source="TB0xdDts6aMuKizarzQX-14" target="TB0xdDts6aMuKizarzQX-1">
          <mxGeometry relative="1" as="geometry" />
        </mxCell>
        <mxCell id="TB0xdDts6aMuKizarzQX-14" value="id" style="ellipse;whiteSpace=wrap;html=1;align=center;fontStyle=4;" vertex="1" parent="1">
          <mxGeometry x="-70" y="155" width="50" height="40" as="geometry" />
        </mxCell>
        <mxCell id="TB0xdDts6aMuKizarzQX-18" style="edgeStyle=orthogonalEdgeStyle;rounded=0;orthogonalLoop=1;jettySize=auto;html=1;exitX=0.5;exitY=1;exitDx=0;exitDy=0;entryX=0.25;entryY=0;entryDx=0;entryDy=0;endArrow=none;endFill=0;" edge="1" parent="1" source="TB0xdDts6aMuKizarzQX-15" target="TB0xdDts6aMuKizarzQX-1">
          <mxGeometry relative="1" as="geometry" />
        </mxCell>
        <mxCell id="TB0xdDts6aMuKizarzQX-15" value="nombre" style="ellipse;whiteSpace=wrap;html=1;align=center;" vertex="1" parent="1">
          <mxGeometry x="-40" y="110" width="100" height="40" as="geometry" />
        </mxCell>
        <mxCell id="TB0xdDts6aMuKizarzQX-16" value="telefono" style="ellipse;whiteSpace=wrap;html=1;align=center;" vertex="1" parent="1">
          <mxGeometry x="90" y="110" width="100" height="40" as="geometry" />
        </mxCell>
        <mxCell id="TB0xdDts6aMuKizarzQX-20" style="edgeStyle=orthogonalEdgeStyle;rounded=0;orthogonalLoop=1;jettySize=auto;html=1;exitX=0;exitY=1;exitDx=0;exitDy=0;entryX=0.66;entryY=0.025;entryDx=0;entryDy=0;entryPerimeter=0;endArrow=none;endFill=0;" edge="1" parent="1" source="TB0xdDts6aMuKizarzQX-16" target="TB0xdDts6aMuKizarzQX-1">
          <mxGeometry relative="1" as="geometry" />
        </mxCell>
        <mxCell id="TB0xdDts6aMuKizarzQX-21" value="codigo" style="ellipse;whiteSpace=wrap;html=1;align=center;fontStyle=4;" vertex="1" parent="1">
          <mxGeometry x="245" y="130" width="80" height="40" as="geometry" />
        </mxCell>
        <mxCell id="TB0xdDts6aMuKizarzQX-22" value="nombre" style="ellipse;whiteSpace=wrap;html=1;align=center;" vertex="1" parent="1">
          <mxGeometry x="280" y="70" width="70" height="40" as="geometry" />
        </mxCell>
        <mxCell id="TB0xdDts6aMuKizarzQX-27" style="edgeStyle=orthogonalEdgeStyle;rounded=0;orthogonalLoop=1;jettySize=auto;html=1;exitX=0;exitY=1;exitDx=0;exitDy=0;entryX=0.5;entryY=0;entryDx=0;entryDy=0;endArrow=none;endFill=0;" edge="1" parent="1" source="TB0xdDts6aMuKizarzQX-23" target="TB0xdDts6aMuKizarzQX-2">
          <mxGeometry relative="1" as="geometry">
            <Array as="points">
              <mxPoint x="370" y="104" />
            </Array>
          </mxGeometry>
        </mxCell>
        <mxCell id="TB0xdDts6aMuKizarzQX-23" value="cuota" style="ellipse;whiteSpace=wrap;html=1;align=center;" vertex="1" parent="1">
          <mxGeometry x="364" y="70" width="66" height="40" as="geometry" />
        </mxCell>
        <mxCell id="TB0xdDts6aMuKizarzQX-24" value="duracion" style="ellipse;whiteSpace=wrap;html=1;align=center;" vertex="1" parent="1">
          <mxGeometry x="414" y="130" width="76" height="40" as="geometry" />
        </mxCell>
        <mxCell id="TB0xdDts6aMuKizarzQX-25" style="edgeStyle=orthogonalEdgeStyle;rounded=0;orthogonalLoop=1;jettySize=auto;html=1;exitX=1;exitY=1;exitDx=0;exitDy=0;entryX=0.158;entryY=0.027;entryDx=0;entryDy=0;entryPerimeter=0;endArrow=none;endFill=0;" edge="1" parent="1" source="TB0xdDts6aMuKizarzQX-21" target="TB0xdDts6aMuKizarzQX-2">
          <mxGeometry relative="1" as="geometry" />
        </mxCell>
        <mxCell id="TB0xdDts6aMuKizarzQX-26" style="edgeStyle=orthogonalEdgeStyle;rounded=0;orthogonalLoop=1;jettySize=auto;html=1;exitX=1;exitY=1;exitDx=0;exitDy=0;entryX=0.34;entryY=0.05;entryDx=0;entryDy=0;entryPerimeter=0;endArrow=none;endFill=0;" edge="1" parent="1" source="TB0xdDts6aMuKizarzQX-22" target="TB0xdDts6aMuKizarzQX-2">
          <mxGeometry relative="1" as="geometry" />
        </mxCell>
        <mxCell id="TB0xdDts6aMuKizarzQX-28" style="edgeStyle=orthogonalEdgeStyle;rounded=0;orthogonalLoop=1;jettySize=auto;html=1;exitX=0;exitY=0.5;exitDx=0;exitDy=0;entryX=0.675;entryY=-0.046;entryDx=0;entryDy=0;entryPerimeter=0;endArrow=none;endFill=0;" edge="1" parent="1" source="TB0xdDts6aMuKizarzQX-24" target="TB0xdDts6aMuKizarzQX-2">
          <mxGeometry relative="1" as="geometry" />
        </mxCell>
        <mxCell id="TB0xdDts6aMuKizarzQX-29" value="id" style="ellipse;whiteSpace=wrap;html=1;align=center;fontStyle=4;" vertex="1" parent="1">
          <mxGeometry x="575" y="110" width="55" height="40" as="geometry" />
        </mxCell>
        <mxCell id="TB0xdDts6aMuKizarzQX-30" value="nombre" style="ellipse;whiteSpace=wrap;html=1;align=center;" vertex="1" parent="1">
          <mxGeometry x="640" y="100" width="60" height="40" as="geometry" />
        </mxCell>
        <mxCell id="TB0xdDts6aMuKizarzQX-35" style="edgeStyle=orthogonalEdgeStyle;rounded=0;orthogonalLoop=1;jettySize=auto;html=1;exitX=0;exitY=1;exitDx=0;exitDy=0;entryX=0.5;entryY=0;entryDx=0;entryDy=0;endArrow=none;endFill=0;" edge="1" parent="1" source="TB0xdDts6aMuKizarzQX-31" target="TB0xdDts6aMuKizarzQX-3">
          <mxGeometry relative="1" as="geometry" />
        </mxCell>
        <mxCell id="TB0xdDts6aMuKizarzQX-31" value="telefono" style="ellipse;shape=doubleEllipse;margin=3;whiteSpace=wrap;html=1;align=center;" vertex="1" parent="1">
          <mxGeometry x="720" y="110" width="100" height="40" as="geometry" />
        </mxCell>
        <mxCell id="TB0xdDts6aMuKizarzQX-37" style="edgeStyle=orthogonalEdgeStyle;rounded=0;orthogonalLoop=1;jettySize=auto;html=1;exitX=0;exitY=0.5;exitDx=0;exitDy=0;entryX=1;entryY=0.5;entryDx=0;entryDy=0;endArrow=none;endFill=0;" edge="1" parent="1" source="TB0xdDts6aMuKizarzQX-32" target="TB0xdDts6aMuKizarzQX-3">
          <mxGeometry relative="1" as="geometry" />
        </mxCell>
        <mxCell id="TB0xdDts6aMuKizarzQX-32" value="email" style="ellipse;whiteSpace=wrap;html=1;align=center;" vertex="1" parent="1">
          <mxGeometry x="780" y="178" width="70" height="40" as="geometry" />
        </mxCell>
        <mxCell id="TB0xdDts6aMuKizarzQX-33" style="edgeStyle=orthogonalEdgeStyle;rounded=0;orthogonalLoop=1;jettySize=auto;html=1;exitX=0.5;exitY=1;exitDx=0;exitDy=0;entryX=0.137;entryY=0.091;entryDx=0;entryDy=0;entryPerimeter=0;endArrow=none;endFill=0;" edge="1" parent="1" source="TB0xdDts6aMuKizarzQX-29" target="TB0xdDts6aMuKizarzQX-3">
          <mxGeometry relative="1" as="geometry" />
        </mxCell>
        <mxCell id="TB0xdDts6aMuKizarzQX-34" style="edgeStyle=orthogonalEdgeStyle;rounded=0;orthogonalLoop=1;jettySize=auto;html=1;exitX=0.5;exitY=1;exitDx=0;exitDy=0;entryX=0.31;entryY=0.068;entryDx=0;entryDy=0;entryPerimeter=0;endArrow=none;endFill=0;" edge="1" parent="1" source="TB0xdDts6aMuKizarzQX-30" target="TB0xdDts6aMuKizarzQX-3">
          <mxGeometry relative="1" as="geometry" />
        </mxCell>
        <mxCell id="TB0xdDts6aMuKizarzQX-38" value="AULA" style="whiteSpace=wrap;html=1;align=center;" vertex="1" parent="1">
          <mxGeometry x="480" y="410" width="100" height="40" as="geometry" />
        </mxCell>
        <mxCell id="TB0xdDts6aMuKizarzQX-41" style="edgeStyle=orthogonalEdgeStyle;rounded=0;orthogonalLoop=1;jettySize=auto;html=1;exitX=0.5;exitY=1;exitDx=0;exitDy=0;entryX=0.5;entryY=0;entryDx=0;entryDy=0;endArrow=none;endFill=0;" edge="1" parent="1" source="TB0xdDts6aMuKizarzQX-39" target="TB0xdDts6aMuKizarzQX-38">
          <mxGeometry relative="1" as="geometry" />
        </mxCell>
        <mxCell id="TB0xdDts6aMuKizarzQX-39" value="Se desarrolla en" style="shape=rhombus;perimeter=rhombusPerimeter;whiteSpace=wrap;html=1;align=center;" vertex="1" parent="1">
          <mxGeometry x="490" y="320" width="80" height="40" as="geometry" />
        </mxCell>
        <mxCell id="TB0xdDts6aMuKizarzQX-45" style="edgeStyle=orthogonalEdgeStyle;rounded=0;orthogonalLoop=1;jettySize=auto;html=1;exitX=1;exitY=0;exitDx=0;exitDy=0;entryX=0.25;entryY=1;entryDx=0;entryDy=0;endArrow=none;endFill=0;" edge="1" parent="1" source="TB0xdDts6aMuKizarzQX-42" target="TB0xdDts6aMuKizarzQX-38">
          <mxGeometry relative="1" as="geometry" />
        </mxCell>
        <mxCell id="TB0xdDts6aMuKizarzQX-42" value="id" style="ellipse;whiteSpace=wrap;html=1;align=center;fontStyle=4;" vertex="1" parent="1">
          <mxGeometry x="430" y="490" width="60" height="40" as="geometry" />
        </mxCell>
        <mxCell id="TB0xdDts6aMuKizarzQX-43" value="capacidad" style="ellipse;whiteSpace=wrap;html=1;align=center;" vertex="1" parent="1">
          <mxGeometry x="500" y="530" width="100" height="40" as="geometry" />
        </mxCell>
        <mxCell id="TB0xdDts6aMuKizarzQX-44" value="piso" style="ellipse;whiteSpace=wrap;html=1;align=center;" vertex="1" parent="1">
          <mxGeometry x="590" y="480" width="70" height="40" as="geometry" />
        </mxCell>
        <mxCell id="TB0xdDts6aMuKizarzQX-46" style="edgeStyle=orthogonalEdgeStyle;rounded=0;orthogonalLoop=1;jettySize=auto;html=1;exitX=0.5;exitY=0;exitDx=0;exitDy=0;entryX=0.437;entryY=0.989;entryDx=0;entryDy=0;entryPerimeter=0;endArrow=none;endFill=0;" edge="1" parent="1" source="TB0xdDts6aMuKizarzQX-43" target="TB0xdDts6aMuKizarzQX-38">
          <mxGeometry relative="1" as="geometry" />
        </mxCell>
        <mxCell id="TB0xdDts6aMuKizarzQX-47" style="edgeStyle=orthogonalEdgeStyle;rounded=0;orthogonalLoop=1;jettySize=auto;html=1;exitX=0;exitY=0.5;exitDx=0;exitDy=0;entryX=0.837;entryY=1.057;entryDx=0;entryDy=0;entryPerimeter=0;endArrow=none;endFill=0;" edge="1" parent="1" source="TB0xdDts6aMuKizarzQX-44" target="TB0xdDts6aMuKizarzQX-38">
          <mxGeometry relative="1" as="geometry" />
        </mxCell>
        <mxCell id="TB0xdDts6aMuKizarzQX-48" value="N" style="text;html=1;align=center;verticalAlign=middle;resizable=0;points=[];autosize=1;strokeColor=none;fillColor=none;" vertex="1" parent="1">
          <mxGeometry x="364" y="235" width="30" height="30" as="geometry" />
        </mxCell>
        <mxCell id="TB0xdDts6aMuKizarzQX-49" value="N" style="text;html=1;align=center;verticalAlign=middle;resizable=0;points=[];autosize=1;strokeColor=none;fillColor=none;" vertex="1" parent="1">
          <mxGeometry x="530" y="380" width="30" height="30" as="geometry" />
        </mxCell>
        <mxCell id="TB0xdDts6aMuKizarzQX-59" style="edgeStyle=orthogonalEdgeStyle;rounded=0;orthogonalLoop=1;jettySize=auto;html=1;exitX=0.5;exitY=1;exitDx=0;exitDy=0;entryX=0.5;entryY=0;entryDx=0;entryDy=0;endArrow=none;endFill=0;" edge="1" parent="1" source="TB0xdDts6aMuKizarzQX-50" target="TB0xdDts6aMuKizarzQX-58">
          <mxGeometry relative="1" as="geometry" />
        </mxCell>
        <mxCell id="TB0xdDts6aMuKizarzQX-50" value="LOCALIDAD" style="whiteSpace=wrap;html=1;align=center;" vertex="1" parent="1">
          <mxGeometry x="-95" y="350" width="100" height="40" as="geometry" />
        </mxCell>
        <mxCell id="TB0xdDts6aMuKizarzQX-52" style="edgeStyle=orthogonalEdgeStyle;rounded=0;orthogonalLoop=1;jettySize=auto;html=1;exitX=0.5;exitY=1;exitDx=0;exitDy=0;entryX=0.5;entryY=0;entryDx=0;entryDy=0;endArrow=none;endFill=0;" edge="1" parent="1" source="TB0xdDts6aMuKizarzQX-51" target="TB0xdDts6aMuKizarzQX-50">
          <mxGeometry relative="1" as="geometry" />
        </mxCell>
        <mxCell id="TB0xdDts6aMuKizarzQX-51" value="Proviene de" style="shape=rhombus;perimeter=rhombusPerimeter;whiteSpace=wrap;html=1;align=center;" vertex="1" parent="1">
          <mxGeometry x="-80" y="280" width="70" height="35" as="geometry" />
        </mxCell>
        <mxCell id="TB0xdDts6aMuKizarzQX-53" style="edgeStyle=orthogonalEdgeStyle;rounded=0;orthogonalLoop=1;jettySize=auto;html=1;exitX=0.5;exitY=0;exitDx=0;exitDy=0;entryX=0.346;entryY=0.977;entryDx=0;entryDy=0;entryPerimeter=0;endArrow=none;endFill=0;" edge="1" parent="1" source="TB0xdDts6aMuKizarzQX-51" target="TB0xdDts6aMuKizarzQX-1">
          <mxGeometry relative="1" as="geometry" />
        </mxCell>
        <mxCell id="TB0xdDts6aMuKizarzQX-56" style="edgeStyle=orthogonalEdgeStyle;rounded=0;orthogonalLoop=1;jettySize=auto;html=1;exitX=1;exitY=0.5;exitDx=0;exitDy=0;entryX=0;entryY=0.5;entryDx=0;entryDy=0;endArrow=none;endFill=0;" edge="1" parent="1" source="TB0xdDts6aMuKizarzQX-54" target="TB0xdDts6aMuKizarzQX-50">
          <mxGeometry relative="1" as="geometry" />
        </mxCell>
        <mxCell id="TB0xdDts6aMuKizarzQX-54" value="id" style="ellipse;whiteSpace=wrap;html=1;align=center;fontStyle=4;" vertex="1" parent="1">
          <mxGeometry x="-200" y="350" width="60" height="40" as="geometry" />
        </mxCell>
        <mxCell id="TB0xdDts6aMuKizarzQX-55" value="desc" style="ellipse;whiteSpace=wrap;html=1;align=center;" vertex="1" parent="1">
          <mxGeometry x="-205" y="410" width="70" height="40" as="geometry" />
        </mxCell>
        <mxCell id="TB0xdDts6aMuKizarzQX-57" style="edgeStyle=orthogonalEdgeStyle;rounded=0;orthogonalLoop=1;jettySize=auto;html=1;exitX=1;exitY=0.5;exitDx=0;exitDy=0;entryX=0.096;entryY=0.92;entryDx=0;entryDy=0;entryPerimeter=0;endArrow=none;endFill=0;" edge="1" parent="1" source="TB0xdDts6aMuKizarzQX-55" target="TB0xdDts6aMuKizarzQX-50">
          <mxGeometry relative="1" as="geometry" />
        </mxCell>
        <mxCell id="TB0xdDts6aMuKizarzQX-61" style="edgeStyle=orthogonalEdgeStyle;rounded=0;orthogonalLoop=1;jettySize=auto;html=1;exitX=0.5;exitY=1;exitDx=0;exitDy=0;entryX=0.5;entryY=0;entryDx=0;entryDy=0;endArrow=none;endFill=0;" edge="1" parent="1" source="TB0xdDts6aMuKizarzQX-58" target="TB0xdDts6aMuKizarzQX-60">
          <mxGeometry relative="1" as="geometry" />
        </mxCell>
        <mxCell id="TB0xdDts6aMuKizarzQX-58" value="Pertenece a" style="shape=rhombus;perimeter=rhombusPerimeter;whiteSpace=wrap;html=1;align=center;" vertex="1" parent="1">
          <mxGeometry x="-85" y="460" width="80" height="40" as="geometry" />
        </mxCell>
        <mxCell id="TB0xdDts6aMuKizarzQX-60" value="PROVINCIA" style="whiteSpace=wrap;html=1;align=center;" vertex="1" parent="1">
          <mxGeometry x="-95" y="575" width="100" height="40" as="geometry" />
        </mxCell>
        <mxCell id="TB0xdDts6aMuKizarzQX-64" style="edgeStyle=orthogonalEdgeStyle;rounded=0;orthogonalLoop=1;jettySize=auto;html=1;exitX=1;exitY=0.5;exitDx=0;exitDy=0;entryX=0;entryY=0.25;entryDx=0;entryDy=0;endArrow=none;endFill=0;" edge="1" parent="1" source="TB0xdDts6aMuKizarzQX-62" target="TB0xdDts6aMuKizarzQX-60">
          <mxGeometry relative="1" as="geometry" />
        </mxCell>
        <mxCell id="TB0xdDts6aMuKizarzQX-62" value="id" style="ellipse;whiteSpace=wrap;html=1;align=center;fontStyle=4;" vertex="1" parent="1">
          <mxGeometry x="-205" y="520" width="60" height="40" as="geometry" />
        </mxCell>
        <mxCell id="TB0xdDts6aMuKizarzQX-67" style="edgeStyle=orthogonalEdgeStyle;rounded=0;orthogonalLoop=1;jettySize=auto;html=1;exitX=1;exitY=0.5;exitDx=0;exitDy=0;endArrow=none;endFill=0;" edge="1" parent="1" source="TB0xdDts6aMuKizarzQX-63">
          <mxGeometry relative="1" as="geometry">
            <mxPoint x="-100" y="605" as="targetPoint" />
          </mxGeometry>
        </mxCell>
        <mxCell id="TB0xdDts6aMuKizarzQX-63" value="desc" style="ellipse;whiteSpace=wrap;html=1;align=center;" vertex="1" parent="1">
          <mxGeometry x="-215" y="595" width="70" height="40" as="geometry" />
        </mxCell>
        <mxCell id="TB0xdDts6aMuKizarzQX-68" value="1" style="text;html=1;align=center;verticalAlign=middle;resizable=0;points=[];autosize=1;strokeColor=none;fillColor=none;" vertex="1" parent="1">
          <mxGeometry x="-45" y="328" width="30" height="30" as="geometry" />
        </mxCell>
        <mxCell id="TB0xdDts6aMuKizarzQX-69" value="N" style="text;html=1;align=center;verticalAlign=middle;resizable=0;points=[];autosize=1;strokeColor=none;fillColor=none;" vertex="1" parent="1">
          <mxGeometry x="55" y="235" width="30" height="30" as="geometry" />
        </mxCell>
        <mxCell id="TB0xdDts6aMuKizarzQX-71" value="1" style="text;html=1;align=center;verticalAlign=middle;resizable=0;points=[];autosize=1;strokeColor=none;fillColor=none;" vertex="1" parent="1">
          <mxGeometry x="-45" y="545" width="30" height="30" as="geometry" />
        </mxCell>
        <mxCell id="TB0xdDts6aMuKizarzQX-72" value="N" style="text;html=1;align=center;verticalAlign=middle;resizable=0;points=[];autosize=1;strokeColor=none;fillColor=none;" vertex="1" parent="1">
          <mxGeometry x="-45" y="390" width="30" height="30" as="geometry" />
        </mxCell>
        <mxCell id="TB0xdDts6aMuKizarzQX-91" style="edgeStyle=orthogonalEdgeStyle;rounded=0;orthogonalLoop=1;jettySize=auto;html=1;exitX=1;exitY=0.5;exitDx=0;exitDy=0;entryX=0;entryY=0.75;entryDx=0;entryDy=0;endArrow=none;endFill=0;" edge="1" parent="1" source="TB0xdDts6aMuKizarzQX-89" target="TB0xdDts6aMuKizarzQX-2">
          <mxGeometry relative="1" as="geometry" />
        </mxCell>
        <mxCell id="TB0xdDts6aMuKizarzQX-89" value="Rinde" style="shape=rhombus;perimeter=rhombusPerimeter;whiteSpace=wrap;html=1;align=center;" vertex="1" parent="1">
          <mxGeometry x="190" y="240" width="60" height="30" as="geometry" />
        </mxCell>
        <mxCell id="TB0xdDts6aMuKizarzQX-94" style="edgeStyle=orthogonalEdgeStyle;rounded=0;orthogonalLoop=1;jettySize=auto;html=1;exitX=0.5;exitY=0;exitDx=0;exitDy=0;entryX=0;entryY=1;entryDx=0;entryDy=0;endArrow=none;endFill=0;" edge="1" parent="1" target="TB0xdDts6aMuKizarzQX-89">
          <mxGeometry relative="1" as="geometry">
            <mxPoint x="180" y="310" as="sourcePoint" />
          </mxGeometry>
        </mxCell>
        <mxCell id="TB0xdDts6aMuKizarzQX-93" value="nota" style="ellipse;whiteSpace=wrap;html=1;align=center;" vertex="1" parent="1">
          <mxGeometry x="240" y="310" width="55" height="40" as="geometry" />
        </mxCell>
        <mxCell id="TB0xdDts6aMuKizarzQX-95" style="edgeStyle=orthogonalEdgeStyle;rounded=0;orthogonalLoop=1;jettySize=auto;html=1;exitX=0;exitY=0;exitDx=0;exitDy=0;entryX=0.623;entryY=0.864;entryDx=0;entryDy=0;entryPerimeter=0;endArrow=none;endFill=0;" edge="1" parent="1" source="TB0xdDts6aMuKizarzQX-93" target="TB0xdDts6aMuKizarzQX-89">
          <mxGeometry relative="1" as="geometry" />
        </mxCell>
        <mxCell id="TB0xdDts6aMuKizarzQX-96" value="N" style="text;html=1;align=center;verticalAlign=middle;resizable=0;points=[];autosize=1;strokeColor=none;fillColor=none;" vertex="1" parent="1">
          <mxGeometry x="295" y="218" width="30" height="30" as="geometry" />
        </mxCell>
        <mxCell id="TB0xdDts6aMuKizarzQX-97" value="N" style="text;html=1;align=center;verticalAlign=middle;resizable=0;points=[];autosize=1;strokeColor=none;fillColor=none;" vertex="1" parent="1">
          <mxGeometry x="120" y="218" width="30" height="30" as="geometry" />
        </mxCell>
        <mxCell id="TB0xdDts6aMuKizarzQX-98" value="fecha" style="ellipse;whiteSpace=wrap;html=1;align=center;fontStyle=4;" vertex="1" parent="1">
          <mxGeometry x="110" y="300" width="80" height="40" as="geometry" />
        </mxCell>
      </root>
    </mxGraphModel>
  </diagram>
</mxfile>
